<svg id="q1" xmlns="http://www.w3.org/2000/svg" viewBox="0 0 218 172.53">
  <defs>
    <style>
      .cls-1 {
        fill: #028477;
      }

      .cls-1, .cls-2, .cls-3 {
        stroke: #000;
        stroke-miterlimit: 10;
        stroke-width: 4px;
      }

      .cls-2 {
        fill: #00a99d;
      }

      .cls-3 {
        fill: #fff;
      }
    </style>
  </defs>
  <title>q1</title>
  <g>
    <path class="cls-1" d="M190.9,90.84A103.56,103.56,0,0,0,103.69,5.29a.42.42,0,0,1,0-.84c2.33-.16,4.68-.25,7.05-.25A103.53,103.53,0,0,1,212.9,90.84a14.51,14.51,0,0,1-14.31,16.86h-22A14.51,14.51,0,0,0,190.9,90.84Z"/>
    <path class="cls-2" d="M8.72,90.32a103.55,103.55,0,0,1,91-85.52,103.54,103.54,0,0,1,91.13,86,14.51,14.51,0,0,1-14.31,16.86H23.46A14.93,14.93,0,0,1,8.72,90.32Z"/>
  </g>
  <g>
    <circle class="cls-3" cx="140.4" cy="63.98" r="16.02"/>
    <circle cx="140.4" cy="63.98" r="10.61"/>
  </g>
  <g>
    <circle class="cls-3" cx="88.07" cy="63.98" r="16.02"/>
    <circle cx="88.07" cy="63.98" r="10.61"/>
  </g>
  <g>
    <circle class="cls-3" cx="39.07" cy="63.98" r="16.02"/>
    <circle cx="39.07" cy="63.98" r="10.61"/>
  </g>
  <path class="cls-1" d="M146,116.28c0,25.82,8.85,46.75,19.77,46.75s19.77-20.93,19.77-46.75Z"/>
  <path class="cls-2" d="M146,116.28C146,142.1,153.1,163,161.84,163s15.83-20.93,15.83-46.75Z"/>
  <path class="cls-1" d="M84.85,116.28c0,25.82,8.85,46.75,19.77,46.75s19.77-20.93,19.77-46.75Z"/>
  <path class="cls-2" d="M84.85,116.28c0,25.82,7.09,46.75,15.83,46.75s15.83-20.93,15.83-46.75Z"/>
  <path class="cls-1" d="M23,116.28C23,142.1,31.89,163,42.81,163s19.77-20.93,19.77-46.75Z"/>
  <path class="cls-2" d="M23,116.28C23,142.1,30.13,163,38.88,163s15.83-20.93,15.83-46.75Z"/>
</svg>
