<svg xmlns="http://www.w3.org/2000/svg" viewBox="0 0 237 233">
  <defs>
    <style>
      .cls-1 {
        fill: #22b573;
      }

      .cls-1, .cls-2, .cls-3, .cls-4 {
        stroke: #000;
        stroke-miterlimit: 10;
      }

      .cls-2 {
        fill: #ed1c24;
        stroke-width: 3.55px;
      }

      .cls-3 {
        fill: #fff;
        stroke-width: 1.01px;
      }

      .cls-4 {
        fill: #2e3192;
        stroke-width: 3.46px;
      }

      .cls-5 {
        fill: #282e7c;
      }

      .cls-6 {
        fill: #1b1464;
      }
    </style>
  </defs>
  <title>q3</title>
  <g id="q3">
    <path class="cls-1" d="M45,92.92c-1.47.32,2,8.27-2.25,16-1.75,3.22-3.92,4.73-4,8.25-.07,2.95,1.35,6,2.5,6s1.33-3.4,3.75-10c2.52-6.85,4-7.68,4-11.25C49,97,46.12,92.67,45,92.92Z"/>
    <path class="cls-2" d="M70.74,92.61c-33.4,5.5-50.24,8.37-57.17,13.72-5.18,4-8.86,9.93-4.69,11.67,3.73,1.56,13.82-.19,19.64-3.13,5.62-2.84,3.12-4.69,7.23-7.1,9.22-5.42,28.25.07,41.38-5.32,7.58-3.11,10.59-8.77,7.25-10.44C82,90.81,76.47,91.67,70.74,92.61Z"/>
    <g>
      <polygon class="cls-3" points="48.71 98.79 44.03 93.6 38.75 85.08 45.06 82.17 51.86 81.96 50.64 92.34 48.71 98.79"/>
      <polygon class="cls-3" points="55.33 97.59 50.65 92.41 45.37 83.89 51.68 80.98 58.48 80.77 57.26 91.15 55.33 97.59"/>
      <polygon class="cls-3" points="68.56 95.21 63.89 90.03 58.61 81.51 64.92 78.59 71.71 78.39 70.49 88.77 68.56 95.21"/>
      <polygon class="cls-3" points="63.36 96.15 58.68 90.97 53.4 82.45 59.71 79.53 66.5 79.33 65.28 89.71 63.36 96.15"/>
    </g>
    <path class="cls-4" d="M134,7.4c-45.28-3-92.7,30.72-97.5,65.19A39.41,39.41,0,0,0,38.2,90.65c1.13,3.49,24.61-12.71,33.12-6.82C97.57,102,43.92,104,48.2,112a64.32,64.32,0,0,1,8,37.34c-2.65,34.56-28.37,59.29-26.54,60.57,2.48,1.73,44-57.51,47.31-47.31,3,9.2-4.85,47.89-8.56,65a.87.87,0,0,0,1.64.54c6.56-14.61,20.75-46.5,27.68-64.42,13.11-33.89,90.87,49.64,92.88,47.31S130.84,163.75,139.23,143c8.78-21.76,76.94,28.16,77.27,24.28.29-3.33-46.39-48.25-46.12-50.82.24-2.3,48.11,10.16,58.27-5.77C241.74,90.11,198.84,11.71,134,7.4Z"/>
    <path class="cls-5" d="M162.72,16.25c40.76,23.65,68.66,77.73,52.8,87.2s-77.21-17.8-58.27,5.64c1.59,2,46.41,46.43,46.12,49.69,0,.16,11.45,6.33,10.93,5.51-1.72-2.74-46.26-45.27-45.29-49.16.83-3.35,48.22,9.58,58.38-6C238.35,92.32,210.17,36.71,162.72,16.25Z"/>
    <path class="cls-1" d="M68.88,83.67c-1.47.32,2,8.27-2.25,16-1.75,3.22-3.92,4.73-4,8.25-.07,2.95,1.35,6,2.5,6s1.33-3.4,3.75-10c2.52-6.85,4-7.68,4-11.25C72.85,87.78,70,83.42,68.88,83.67Z"/>
    <ellipse class="cls-6" cx="160.17" cy="25.5" rx="6.17" ry="11.83" transform="translate(83.72 168.54) rotate(-70.92)"/>
    <ellipse class="cls-6" cx="174.53" cy="39.72" rx="3.38" ry="6.48" transform="translate(79.94 191.68) rotate(-70.92)"/>
    <ellipse class="cls-6" cx="174.53" cy="30.47" rx="3.38" ry="6.48" transform="translate(88.69 185.45) rotate(-70.92)"/>
    <path class="cls-6" d="M103.53,77.6A17,17,0,0,1,108,84a18.71,18.71,0,0,1,1.33,7.87,17.69,17.69,0,0,1-2.19,7.69,14.9,14.9,0,0,1-5.43,5.65,23.16,23.16,0,0,0,4-6.34,21.15,21.15,0,0,0,1.59-7.11,22.85,22.85,0,0,0-.8-7.26A29.27,29.27,0,0,0,103.53,77.6Z"/>
    <path class="cls-6" d="M112,77.6A17,17,0,0,1,116.47,84a18.71,18.71,0,0,1,1.33,7.87,17.69,17.69,0,0,1-2.19,7.69,14.9,14.9,0,0,1-5.43,5.65,23.16,23.16,0,0,0,4-6.34,21.15,21.15,0,0,0,1.59-7.11,22.85,22.85,0,0,0-.8-7.26A29.27,29.27,0,0,0,112,77.6Z"/>
  </g>
</svg>
