<?xml version="1.0" encoding="iso-8859-1"?>
<!-- Generator: Adobe Illustrator 19.0.0, SVG Export Plug-In . SVG Version: 6.00 Build 0)  -->
<svg version="1.1" id="Layer_1" xmlns="http://www.w3.org/2000/svg" xmlns:xlink="http://www.w3.org/1999/xlink" x="0px" y="0px"
	 viewBox="0 0 512 512" style="enable-background:new 0 0 512 512;" xml:space="preserve">
<path style="fill:#4B925E;" d="M293.647,429.176V323.765h-30.118h-15.059h-30.118v105.412c0,20.759-16.888,37.647-37.647,37.647V512
	c33.384,0,62.197-19.864,75.294-48.384C269.097,492.136,297.91,512,331.294,512v-45.176
	C310.536,466.824,293.647,449.935,293.647,429.176z"/>
<path style="fill:#32623F;" d="M293.647,429.176V323.765H256c0,0,0,78.312,0,139.851C269.097,492.136,297.91,512,331.294,512
	v-45.176C310.536,466.824,293.647,449.935,293.647,429.176z"/>
<path style="fill:#4B925E;" d="M301.176,45.176C301.176,20.226,280.949,0,256,0s-45.176,20.226-45.176,45.176
	c0,16.718,9.09,31.306,22.588,39.118v36.176h45.176V84.295C292.087,76.482,301.176,61.895,301.176,45.176z"/>
<path style="fill:#32623F;" d="M256,0v120.471h22.588V84.295c13.499-7.813,22.588-22.398,22.588-39.118
	C301.176,20.226,280.949,0,256,0z"/>
<path style="fill:#91DC5A;" d="M414.118,421.647V263.529c0-87.326-70.792-158.118-158.118-158.118S97.882,176.203,97.882,263.529
	v158.118H414.118z"/>
<path style="fill:#64C37D;" d="M414.118,421.647V263.529c0-87.326-70.792-158.118-158.118-158.118c0,110.091,0,316.235,0,316.235
	H414.118z"/>
<path style="fill:#FFFFFF;" d="M256,180.706c-37.365,0-67.765,30.399-67.765,67.765s30.399,67.765,67.765,67.765
	s67.765-30.399,67.765-67.765S293.365,180.706,256,180.706z"/>
<g>
	<circle style="fill:#1E2E3B;" cx="256" cy="248.471" r="22.588"/>
	<path style="fill:#1E2E3B;" d="M225.882,346.353c0,16.632,13.485,30.118,30.118,30.118l0,0c16.632,0,30.118-13.485,30.118-30.118
		H225.882z"/>
</g>
<g>
</g>
<g>
</g>
<g>
</g>
<g>
</g>
<g>
</g>
<g>
</g>
<g>
</g>
<g>
</g>
<g>
</g>
<g>
</g>
<g>
</g>
<g>
</g>
<g>
</g>
<g>
</g>
<g>
</g>
</svg>
