<svg xmlns="http://www.w3.org/2000/svg" viewBox="0 0 172 167">
  <defs>
    <style>
      .cls-1 {
        fill: #1a1a1a;
      }

      .cls-1, .cls-2, .cls-3, .cls-4, .cls-5 {
        stroke: #000;
        stroke-miterlimit: 10;
        stroke-width: 3px;
      }

      .cls-2 {
        fill: #333;
      }

      .cls-3 {
        fill: #fff;
      }

      .cls-4 {
        fill: none;
      }

      .cls-5 {
        fill: #0071bc;
        opacity: 0.14;
      }

      .cls-6 {
        fill: #f2f2f2;
      }
    </style>
  </defs>
  <title>q2</title>
  <g id="q2">
    <g>
      <path class="cls-1" d="M161.05,122.05c0-27.16-8.45-51.81-22.19-69.94C143.92,39.54,135.12,3,125.66,8.24h0c2-1.29,4-2.49,5.87-3.51C141-.49,149.78,36,144.73,48.61c13.74,18.14,22.19,42.78,22.19,69.94,0,12.92-8.54,22.84-21.66,29.77C155,141.68,161.05,132.93,161.05,122.05Z"/>
      <path class="cls-2" d="M8.08,118.55c0-26.56,8.09-50.72,21.3-68.74-4.69-8.45-.71-32.76,5.72-42,2.46-2,12.57,7.47,17.28,11.45a31.17,31.17,0,0,1,6,6.29,63.64,63.64,0,0,1,45.35-.44c.89-1.28,15.34-12.68,21.92-16.89h0c9.46-5.22,18.26,31.31,13.21,43.88,13.74,18.14,22.19,42.78,22.19,69.94,0,10.88-6.05,19.63-15.79,26.26C101.8,171.26,8.08,161.34,8.08,118.55Z"/>
    </g>
    <path class="cls-3" d="M36.8,94c0,.93,8.55,3,8.6,3.91.07,1.25-8.33,1.36-8.17,2.58a47.77,47.77,0,0,0,94.66,0c.1-.7-10-.74-9.9-1.46.13-1.44,10.33-3.56,10.33-5A47.77,47.77,0,0,0,36.8,94Z"/>
    <circle cx="107.57" cy="88.06" r="9.81"/>
    <path d="M75.77,100.45a5.86,5.86,0,0,0,11.73,0Z"/>
    <circle cx="56.32" cy="88.06" r="9.81"/>
    <path class="cls-4" d="M81.64,106.32c0,8.12,7.83,14.68,17.5,14.68"/>
    <path class="cls-4" d="M81.64,108c0,8.12-7.83,14.68-17.5,14.68"/>
    <path class="cls-5" d="M21.19,95.67c0,32.17,26.08,50.44,58.25,50.44s58.25-18.27,58.25-50.44a58.25,58.25,0,1,0-116.5,0Z"/>
    <ellipse class="cls-6" cx="45.4" cy="54.56" rx="3.99" ry="2.56" transform="translate(-23.35 36.91) rotate(-35.83)"/>
    <ellipse class="cls-6" cx="38.84" cy="60.09" rx="2.51" ry="1.65" transform="translate(-27.83 34.11) rotate(-35.83)"/>
  </g>
</svg>
