<?xml version="1.0" encoding="utf-8"?>
<!-- Generator: Adobe Illustrator 16.0.0, SVG Export Plug-In . SVG Version: 6.00 Build 0)  -->
<!DOCTYPE svg PUBLIC "-//W3C//DTD SVG 1.1//EN" "http://www.w3.org/Graphics/SVG/1.1/DTD/svg11.dtd">
<svg version="1.1" xmlns="http://www.w3.org/2000/svg" xmlns:xlink="http://www.w3.org/1999/xlink" x="0px" y="0px" width="217.5px"
	 height="237.2px" viewBox="0 0 217.5 237.2" style="enable-background:new 0 0 217.5 237.2;" xml:space="preserve">
<style type="text/css">
<![CDATA[
	.st0{fill:#7AEEE1;}
	.st1{fill:#AACDE1;}
	.st2{fill:#7C7E7D;}
	.st3{fill:#AE3082;}
	.st4{fill:#58C44D;stroke:#005115;stroke-width:5.2544;stroke-miterlimit:10;}
	.st5{fill:#11A2C9;}
	.st6{fill:#AFAFAF;}
	.st7{fill:#E1E9EC;}
	.st8{fill:#E327BC;}
	.st9{fill:#FFA1A1;stroke:#9E1919;stroke-width:4.637;stroke-linecap:round;stroke-linejoin:round;stroke-miterlimit:10;}
	.st10{fill:#FF97E7;stroke:#9B0486;stroke-width:6.5338;stroke-linecap:round;stroke-linejoin:round;stroke-miterlimit:10;}
	.st11{fill:#161F44;}
	.st12{fill:#E53D39;}
	.st13{fill:#4ABAE9;}
	.st14{fill:#7FEA73;stroke:#005115;stroke-width:5;stroke-miterlimit:10;}
	.st15{fill:#FFFFFF;stroke:#9E1919;stroke-width:5.9794;stroke-linecap:round;stroke-linejoin:round;stroke-miterlimit:10;}
	.st16{fill:#18ACC6;}
	.st17{opacity:0.2;fill:#1CBF33;}
	.st18{fill:#19A82D;}
	.st19{fill:#4DE5D6;}
	.st20{fill:#E8E8EA;}
	.st21{fill:#4E626D;}
	.st22{fill:#FFFFFF;stroke:#460166;stroke-width:5.6255;stroke-miterlimit:10;}
	.st23{opacity:0.3;fill:#9B0486;}
	.st24{opacity:0.3;fill:#9E1919;}
	.st25{fill:#1A8FC5;}
	.st26{fill:#868687;}
	.st27{fill:#58C44D;stroke:#005115;stroke-width:5;stroke-miterlimit:10;}
	.st28{opacity:0.2;fill:#BA4626;}
	.st29{fill:#1CBF33;}
	.st30{fill:none;stroke:#460166;stroke-width:4.8305;stroke-linecap:round;stroke-miterlimit:10;}
	.st31{fill:#1DA9E4;}
	.st32{fill:#1F949E;}
	.st33{fill:#1FC7EB;}
	.st34{fill:#50E6FF;}
	.st35{fill:#FFA1A1;stroke:#9E1919;stroke-width:5;stroke-linecap:round;stroke-linejoin:round;stroke-miterlimit:10;}
	.st36{fill:#FFA1A1;stroke:#9E1919;stroke-width:5.9794;stroke-linecap:round;stroke-linejoin:round;stroke-miterlimit:10;}
	.st37{opacity:0.3;fill:#005115;}
	.st38{opacity:0.3;fill:#005D82;}
	.st39{fill:#488442;stroke:#005115;stroke-width:5.2544;stroke-miterlimit:10;}
	.st40{fill:#FFFFFF;stroke:#9E1919;stroke-width:5;stroke-linecap:round;stroke-linejoin:round;stroke-miterlimit:10;}
	.st41{fill:#57717E;}
	.st42{fill:none;stroke:#9B0486;stroke-width:6;stroke-linecap:round;stroke-linejoin:round;stroke-miterlimit:10;}
	.st43{fill:#FFFFFF;stroke:#9B0486;stroke-width:6;stroke-linecap:round;stroke-linejoin:round;stroke-miterlimit:10;}
	.st44{fill:#BDBDBD;}
	.st45{fill:#BF4636;}
	.st46{fill:#22D93B;}
	.st47{opacity:0.2;fill:#929398;}
	.st48{fill:#F2F2F2;}
	.st49{fill:none;stroke:#005D82;stroke-width:5.2544;stroke-linecap:round;stroke-linejoin:round;stroke-miterlimit:10;}
	.st50{fill:#D88282;stroke:#9E1919;stroke-width:5.9794;stroke-linecap:round;stroke-linejoin:round;stroke-miterlimit:10;}
	.st51{fill:#26B1E4;}
	.st52{fill:#F7F7F7;}
	.st53{clip-path:url(#SVGID_2_);}
	.st54{clip-path:url(#SVGID_4_);}
	.st55{clip-path:url(#SVGID_6_);}
	.st56{clip-path:url(#SVGID_8_);}
	.st57{fill:#7FEA73;stroke:#005115;stroke-width:5.2544;stroke-miterlimit:10;}
	.st58{fill:#50E6FF;stroke:#005D82;stroke-width:5;stroke-linecap:round;stroke-linejoin:round;stroke-miterlimit:10;}
	.st59{fill:#999B9F;}
	.st60{fill:#FCDD5B;}
	.st61{fill:#C91190;}
	.st62{opacity:0.3;fill:#460166;}
	.st63{opacity:0.3;}
	.st64{fill:#FFFFFF;stroke:#9E1919;stroke-width:1.9866;stroke-linecap:round;stroke-linejoin:round;stroke-miterlimit:10;}
	.st65{fill:#FEFEFF;}
	.st66{fill:#FFFFFF;}
	.st67{fill:#FFFFFF;stroke:#460166;stroke-width:4.8305;stroke-miterlimit:10;}
	.st68{fill:#FFFFFF;stroke:#005D82;stroke-width:5.2544;stroke-linecap:round;stroke-linejoin:round;stroke-miterlimit:10;}
	.st69{fill:#D18DE2;stroke:#460166;stroke-width:5.6255;stroke-miterlimit:10;}
	.st70{fill:none;stroke:#005D82;stroke-width:5;stroke-linecap:round;stroke-linejoin:round;stroke-miterlimit:10;}
	.st71{fill:#FFFFFF;stroke:#005D82;stroke-width:5;stroke-linecap:round;stroke-linejoin:round;stroke-miterlimit:10;}
	.st72{fill:#364852;}
	.st73{fill:#FFFFFF;stroke:#9E1919;stroke-width:2.3758;stroke-linecap:round;stroke-linejoin:round;stroke-miterlimit:10;}
	.st74{fill:none;stroke:#460166;stroke-width:5.6255;stroke-linecap:round;stroke-miterlimit:10;}
	.st75{fill:#6C98B1;}
	.st76{fill:#6D9CB0;}
	.st77{fill:#001405;}
	.st78{fill:#005D82;}
	.st79{fill:#006265;}
	.st80{fill:#FFFFFF;stroke:#005115;stroke-width:5;stroke-miterlimit:10;}
	.st81{fill:#2DA1AD;stroke:#005D82;stroke-width:5;stroke-linecap:round;stroke-linejoin:round;stroke-miterlimit:10;}
	.st82{fill:#FFFFFF;stroke:#005115;stroke-width:5.2544;stroke-miterlimit:10;}
	.st83{fill:none;stroke:#9B0486;stroke-width:6.5338;stroke-linecap:round;stroke-linejoin:round;stroke-miterlimit:10;}
	.st84{fill:#D2D2D2;}
	.st85{fill:#FFA1A1;stroke:#9E1919;stroke-width:3.8774;stroke-linecap:round;stroke-linejoin:round;stroke-miterlimit:10;}
	.st86{fill:#D18DE2;stroke:#460166;stroke-width:5;stroke-miterlimit:10;}
	.st87{clip-path:url(#SVGID_10_);}
	.st88{fill:#50E6FF;stroke:#005D82;stroke-width:5.2544;stroke-linecap:round;stroke-linejoin:round;stroke-miterlimit:10;}
	.st89{fill:#FF97E7;stroke:#9B0486;stroke-width:6;stroke-linecap:round;stroke-linejoin:round;stroke-miterlimit:10;}
	.st90{fill:#488442;stroke:#005115;stroke-width:5;stroke-miterlimit:10;}
	.st91{fill:none;stroke:#000000;stroke-width:6;stroke-miterlimit:10;}
	.st92{fill:#FFFFFF;stroke:#231F20;stroke-miterlimit:10;}
	.st93{fill:#2DA1AD;stroke:#005D82;stroke-width:5.2544;stroke-linecap:round;stroke-linejoin:round;stroke-miterlimit:10;}
	.st94{fill:#78756E;}
	.st95{fill:#FFFFFF;stroke:#9B0486;stroke-width:6.5338;stroke-linecap:round;stroke-linejoin:round;stroke-miterlimit:10;}
]]>
</style>
<g id="bg">
</g>
<g id="characters">
	<g>
		<path class="st52" d="M217.1,171.4c-0.3-0.3-8.3-6.9-11.2-8.9c-6.9-4.8-13.6-6.9-19.4-6.3c-4.6,0.5-8.6,2.8-11.9,6.6
			c-3.5-2.6-17.2-12.8-20.2-17.9c-4.8-8.2-8.5-35.3-9.3-41.1c0,0,0.1,0,0.1,0c6.3-0.7,38-5.9,38.3-36.2c0.1-7.5-5.8-39.3-6.1-40.7
			c-1.8-7.9-11.9-11.9-19.1-10.2c-7.6,1.8-12.3,9.4-10.5,16.9c0.1,0.3,5.4,25.7,7.3,34.6c0,0.1,0.1,2,0,2.2
			c-0.2,0.3-0.4,0.7-0.4,1.2l-115.8,23c-0.3-0.2-0.6-0.4-0.8-0.5c-0.1-0.1-0.3-0.2-0.4-0.2c-2-9.1-7.5-35.5-7.5-35.8
			C28.2,50.1,18.2,46,11,47.7C3.4,49.5-1.3,57.1,0.5,64.5c0,0.2,2.8,18.9,5.1,27.9c4,15.8,14.8,33.9,43.2,30.7
			c3.7-0.4,7.6-1.2,11.6-2.3c1.8,5.4,10.4,32.2,9.2,41.8c-0.7,6-9.8,21.2-11.9,24.8c-2-0.7-7-2.2-12.5-1.6
			c-7.8,0.9-13.7,5.6-17,13.7c-1.3,3.1-5.1,12.5-5.1,12.5c-0.2,0.5,0,1.1,0.5,1.4l49.2,23.6c0.2,0.1,0.4,0.1,0.6,0.1
			c0.1,0,0.2,0,0.3-0.1c0.3-0.1,0.5-0.3,0.6-0.6c0.2-0.5,20.8-50.1,30.8-64.6c1.7-2.4,5.3-4.2,9.5-4.7c3-0.3,9.1-2.6,14.1,0
			c13.5,6.9,49.8,46.7,50.2,47.1c0.2,0.2,0.5,0.3,0.8,0.3c0.3,0,0.6-0.1,0.8-0.4l36.8-41.3c0.2-0.2,0.3-0.5,0.3-0.8
			C217.4,171.8,217.3,171.6,217.1,171.4z"/>
		<path class="st7" d="M38.8,94.5c-0.3-0.2-0.6-0.4-0.8-0.5c-0.1-0.1-0.3-0.2-0.4-0.2c-2-9.1-7.5-35.5-7.5-35.8
			C28.2,50.1,18.2,46,11,47.7C3.4,49.5-1.3,57.1,0.5,64.5c0,0.2,2.8,18.9,5.1,27.9c4,15.8,14.8,33.9,43.2,30.7
			c3.7-0.4,7.6-1.2,11.6-2.3c1.8,5.4,10.4,32.2,9.2,41.8c-0.7,6-9.8,21.2-11.9,24.8c-2-0.7-7-2.2-12.5-1.6
			c-7.8,0.9-13.7,5.6-17,13.7c-1.3,3.1-5.1,12.5-5.1,12.5c-0.2,0.5,0,1.1,0.5,1.4l49.2,23.6c0.2,0.1,0.4,0.1,0.6,0.1
			c0.1,0,0.2,0,0.3-0.1c0.3-0.1,0.5-0.3,0.6-0.6c0.2-0.5,20.8-50.1,30.8-64.6c1.7-2.4,5.3-4.2,9.5-4.7c0.7-0.1,1.5-0.3,2.5-0.4
			c0,0-9.9-3.8-11.7-4.8c-5.6-3.2-11.5-1.2-17.5-5.2C71.4,146,69.4,88.4,69.4,88.4L38.8,94.5z"/>
		<path class="st1" d="M127.7,79.2c0.7,3.2-1,5.3-4.6,7c-7.9,3.7-11,4.3-24.7,7.1c-18,3.7-19.5,3.3-25.6,3.2c-3.3-0.1-6.3-1.4-7-4.6
			l0,0c-0.7-3.2,1.4-6.3,4.6-7l50.3-10.3C123.9,74,127,76,127.7,79.2L127.7,79.2z"/>
		
			<rect x="79.4" y="109" transform="matrix(0.9796 -0.2008 0.2008 0.9796 -22.6388 23.8152)" class="st1" width="53.4" height="29"/>
		<g>
			<g>
				<path class="st65" d="M104.4,117.9l-19.8,4.1c-0.8,0.2-1.6-0.3-1.7-1.1c-0.2-0.8,0.3-1.6,1.1-1.7l19.8-4.1
					c0.8-0.2,1.6,0.3,1.7,1.1C105.8,116.9,105.2,117.7,104.4,117.9z"/>
			</g>
			<g>
				<path class="st65" d="M105.9,125.1l-19.8,4.1c-0.8,0.2-1.6-0.3-1.7-1.1c-0.2-0.8,0.4-1.6,1.1-1.7l19.8-4.1
					c0.8-0.2,1.6,0.3,1.7,1.1C107.2,124.1,106.7,124.9,105.9,125.1z"/>
			</g>
			<g>
				<path class="st65" d="M107.4,132.3l-19.8,4.1c-0.8,0.2-1.6-0.3-1.7-1.1c-0.2-0.8,0.3-1.6,1.1-1.7l19.8-4.1
					c0.8-0.2,1.6,0.3,1.7,1.1C108.7,131.3,108.2,132.1,107.4,132.3z"/>
			</g>
		</g>
		<g>
			<circle class="st65" cx="120.5" cy="124.4" r="6.1"/>
			<circle class="st65" cx="118.2" cy="113.2" r="2.2"/>
		</g>
		<path class="st1" d="M28,199.7c-1.3,3.3-5,12.3-5,12.3c-0.2,0.5,0,1.1,0.5,1.4l49.2,23.6c0.2,0.1,0.4,0.1,0.6,0.1
			c0.1,0,0.2,0,0.3-0.1c0.3-0.1,0.5-0.3,0.6-0.6c0.1-0.2,2.6-6.3,6.3-14.7L28,199.7z"/>
		<path class="st1" d="M205.9,162.5c0,0-0.1-0.1-0.1-0.1l-37,41.1c5.9,6.2,10,10.7,10.1,10.8c0.2,0.2,0.5,0.3,0.8,0.3
			c0.3,0,0.6-0.1,0.8-0.4l36.8-41.3c0.2-0.2,0.3-0.5,0.3-0.8c0-0.3-0.2-0.6-0.4-0.7C216.7,171.1,208.8,164.5,205.9,162.5z"/>
		<g>
			
				<ellipse transform="matrix(0.9796 -0.2008 0.2008 0.9796 -7.0652 18.6129)" class="st52" cx="88.2" cy="44.1" rx="49.3" ry="43.9"/>
			<path class="st7" d="M99.5,77.5C72.8,83,47.2,68.1,42.4,44.4c-0.9-4.3-1-8.6-0.5-12.8C39.2,38.7,38.4,46.3,40,54
				c4.9,23.8,30.4,38.6,57.1,33.1c21.8-4.5,37.6-21.2,40-40.1C131.4,61.8,117.5,73.8,99.5,77.5z"/>
			<path class="st25" d="M123.1,45c2.1,10.5-4.6,20.7-15.1,22.8l-28.6,5.9c-10.5,2.1-20.7-4.6-22.8-15.1l-3.1-15.3
				C51.3,32.8,58,22.6,68.5,20.5l28.6-5.9c10.5-2.1,20.7,4.6,22.8,15.1L123.1,45z"/>
			<path class="st75" d="M48.6,62.1c0.8,3.7-1.6,7.3-5.3,8l0,0c-3.7,0.8-7.3-1.6-8-5.3l-3.9-19c-0.8-3.7,1.6-7.3,5.3-8l0,0
				c3.7-0.8,7.3,1.6,8,5.3L48.6,62.1z"/>
			<path class="st75" d="M145.1,42.4c0.8,3.7-1.6,7.3-5.3,8l0,0c-3.7,0.8-7.3-1.6-8-5.3l-3.9-19c-0.8-3.7,1.6-7.3,5.3-8l0,0
				c3.7-0.8,7.3,1.6,8,5.3L145.1,42.4z"/>
			<path class="st16" d="M97.1,14.6l-28.6,5.9C58,22.6,51.3,32.8,53.4,43.3l1.3,6.5c9.1,4.6,21.9,6.1,35.3,3.4
				c13.5-2.8,24.7-9.2,31.2-17l-1.3-6.5C117.8,19.2,107.6,12.5,97.1,14.6z"/>
		</g>
		<path class="st76" d="M35,71.3c0.6,2.8-0.7,5.4-2.9,5.8L5.1,82.7c-2.1,0.4-4.4-1.5-4.9-4.3l0,0C-0.4,75.6,0.8,73,3,72.6L30.1,67
			C32.2,66.6,34.4,68.5,35,71.3L35,71.3z"/>
		<path class="st76" d="M183.2,40.9c0.6,2.8-0.7,5.4-2.9,5.8l-27.1,5.5c-2.1,0.4-4.4-1.5-4.9-4.3l0,0c-0.6-2.8,0.7-5.4,2.9-5.8
			l27.1-5.5C180.5,36.2,182.7,38.1,183.2,40.9L183.2,40.9z"/>
	</g>
</g>
</svg>
