<?xml version="1.0" encoding="utf-8"?>
<!-- Generator: Adobe Illustrator 16.0.0, SVG Export Plug-In . SVG Version: 6.00 Build 0)  -->
<!DOCTYPE svg PUBLIC "-//W3C//DTD SVG 1.1//EN" "http://www.w3.org/Graphics/SVG/1.1/DTD/svg11.dtd">
<svg version="1.1" xmlns="http://www.w3.org/2000/svg" xmlns:xlink="http://www.w3.org/1999/xlink" x="0px" y="0px" width="340.1px"
	 height="250.9px" viewBox="0 0 340.1 250.9" style="enable-background:new 0 0 340.1 250.9;" xml:space="preserve">
<style type="text/css">
<![CDATA[
	.st0{fill:#7AEEE1;}
	.st1{fill:#AACDE1;}
	.st2{fill:#7C7E7D;}
	.st3{fill:#AE3082;}
	.st4{fill:#58C44D;stroke:#005115;stroke-width:5.2544;stroke-miterlimit:10;}
	.st5{fill:#11A2C9;}
	.st6{fill:#AFAFAF;}
	.st7{fill:#E1E9EC;}
	.st8{fill:#E327BC;}
	.st9{fill:#FFA1A1;stroke:#9E1919;stroke-width:4.637;stroke-linecap:round;stroke-linejoin:round;stroke-miterlimit:10;}
	.st10{fill:#FF97E7;stroke:#9B0486;stroke-width:6.5338;stroke-linecap:round;stroke-linejoin:round;stroke-miterlimit:10;}
	.st11{fill:#161F44;}
	.st12{fill:#E53D39;}
	.st13{fill:#4ABAE9;}
	.st14{fill:#7FEA73;stroke:#005115;stroke-width:5;stroke-miterlimit:10;}
	.st15{fill:#FFFFFF;stroke:#9E1919;stroke-width:5.9794;stroke-linecap:round;stroke-linejoin:round;stroke-miterlimit:10;}
	.st16{fill:#18ACC6;}
	.st17{opacity:0.2;fill:#1CBF33;}
	.st18{fill:#19A82D;}
	.st19{fill:#4DE5D6;}
	.st20{fill:#E8E8EA;}
	.st21{fill:#4E626D;}
	.st22{fill:#FFFFFF;stroke:#460166;stroke-width:5.6255;stroke-miterlimit:10;}
	.st23{opacity:0.3;fill:#9B0486;}
	.st24{opacity:0.3;fill:#9E1919;}
	.st25{fill:#1A8FC5;}
	.st26{fill:#868687;}
	.st27{fill:#58C44D;stroke:#005115;stroke-width:5;stroke-miterlimit:10;}
	.st28{opacity:0.2;fill:#BA4626;}
	.st29{fill:#1CBF33;}
	.st30{fill:none;stroke:#460166;stroke-width:4.8305;stroke-linecap:round;stroke-miterlimit:10;}
	.st31{fill:#1DA9E4;}
	.st32{fill:#1F949E;}
	.st33{fill:#1FC7EB;}
	.st34{fill:#50E6FF;}
	.st35{fill:#FFA1A1;stroke:#9E1919;stroke-width:5;stroke-linecap:round;stroke-linejoin:round;stroke-miterlimit:10;}
	.st36{fill:#FFA1A1;stroke:#9E1919;stroke-width:5.9794;stroke-linecap:round;stroke-linejoin:round;stroke-miterlimit:10;}
	.st37{opacity:0.3;fill:#005115;}
	.st38{opacity:0.3;fill:#005D82;}
	.st39{fill:#488442;stroke:#005115;stroke-width:5.2544;stroke-miterlimit:10;}
	.st40{fill:#FFFFFF;stroke:#9E1919;stroke-width:5;stroke-linecap:round;stroke-linejoin:round;stroke-miterlimit:10;}
	.st41{fill:#57717E;}
	.st42{fill:none;stroke:#9B0486;stroke-width:6;stroke-linecap:round;stroke-linejoin:round;stroke-miterlimit:10;}
	.st43{fill:#FFFFFF;stroke:#9B0486;stroke-width:6;stroke-linecap:round;stroke-linejoin:round;stroke-miterlimit:10;}
	.st44{fill:#BDBDBD;}
	.st45{fill:#BF4636;}
	.st46{fill:#22D93B;}
	.st47{opacity:0.2;fill:#929398;}
	.st48{fill:#F2F2F2;}
	.st49{fill:none;stroke:#005D82;stroke-width:5.2544;stroke-linecap:round;stroke-linejoin:round;stroke-miterlimit:10;}
	.st50{fill:#D88282;stroke:#9E1919;stroke-width:5.9794;stroke-linecap:round;stroke-linejoin:round;stroke-miterlimit:10;}
	.st51{fill:#26B1E4;}
	.st52{fill:#F7F7F7;}
	.st53{clip-path:url(#SVGID_2_);}
	.st54{clip-path:url(#SVGID_4_);}
	.st55{clip-path:url(#SVGID_6_);}
	.st56{clip-path:url(#SVGID_8_);}
	.st57{fill:#7FEA73;stroke:#005115;stroke-width:5.2544;stroke-miterlimit:10;}
	.st58{fill:#50E6FF;stroke:#005D82;stroke-width:5;stroke-linecap:round;stroke-linejoin:round;stroke-miterlimit:10;}
	.st59{fill:#999B9F;}
	.st60{fill:#FCDD5B;}
	.st61{fill:#C91190;}
	.st62{opacity:0.3;fill:#460166;}
	.st63{opacity:0.3;}
	.st64{fill:#FFFFFF;stroke:#9E1919;stroke-width:1.9866;stroke-linecap:round;stroke-linejoin:round;stroke-miterlimit:10;}
	.st65{fill:#FEFEFF;}
	.st66{fill:#FFFFFF;}
	.st67{fill:#FFFFFF;stroke:#460166;stroke-width:4.8305;stroke-miterlimit:10;}
	.st68{fill:#FFFFFF;stroke:#005D82;stroke-width:5.2544;stroke-linecap:round;stroke-linejoin:round;stroke-miterlimit:10;}
	.st69{fill:#D18DE2;stroke:#460166;stroke-width:5.6255;stroke-miterlimit:10;}
	.st70{fill:none;stroke:#005D82;stroke-width:5;stroke-linecap:round;stroke-linejoin:round;stroke-miterlimit:10;}
	.st71{fill:#FFFFFF;stroke:#005D82;stroke-width:5;stroke-linecap:round;stroke-linejoin:round;stroke-miterlimit:10;}
	.st72{fill:#364852;}
	.st73{fill:#FFFFFF;stroke:#9E1919;stroke-width:2.3758;stroke-linecap:round;stroke-linejoin:round;stroke-miterlimit:10;}
	.st74{fill:none;stroke:#460166;stroke-width:5.6255;stroke-linecap:round;stroke-miterlimit:10;}
	.st75{fill:#6C98B1;}
	.st76{fill:#6D9CB0;}
	.st77{fill:#001405;}
	.st78{fill:#005D82;}
	.st79{fill:#006265;}
	.st80{fill:#FFFFFF;stroke:#005115;stroke-width:5;stroke-miterlimit:10;}
	.st81{fill:#2DA1AD;stroke:#005D82;stroke-width:5;stroke-linecap:round;stroke-linejoin:round;stroke-miterlimit:10;}
	.st82{fill:#FFFFFF;stroke:#005115;stroke-width:5.2544;stroke-miterlimit:10;}
	.st83{fill:none;stroke:#9B0486;stroke-width:6.5338;stroke-linecap:round;stroke-linejoin:round;stroke-miterlimit:10;}
	.st84{fill:#D2D2D2;}
	.st85{fill:#FFA1A1;stroke:#9E1919;stroke-width:3.8774;stroke-linecap:round;stroke-linejoin:round;stroke-miterlimit:10;}
	.st86{fill:#D18DE2;stroke:#460166;stroke-width:5;stroke-miterlimit:10;}
	.st87{clip-path:url(#SVGID_10_);}
	.st88{fill:#50E6FF;stroke:#005D82;stroke-width:5.2544;stroke-linecap:round;stroke-linejoin:round;stroke-miterlimit:10;}
	.st89{fill:#FF97E7;stroke:#9B0486;stroke-width:6;stroke-linecap:round;stroke-linejoin:round;stroke-miterlimit:10;}
	.st90{fill:#488442;stroke:#005115;stroke-width:5;stroke-miterlimit:10;}
	.st91{fill:none;stroke:#000000;stroke-width:6;stroke-miterlimit:10;}
	.st92{fill:#FFFFFF;stroke:#231F20;stroke-miterlimit:10;}
	.st93{fill:#2DA1AD;stroke:#005D82;stroke-width:5.2544;stroke-linecap:round;stroke-linejoin:round;stroke-miterlimit:10;}
	.st94{fill:#78756E;}
	.st95{fill:#FFFFFF;stroke:#9B0486;stroke-width:6.5338;stroke-linecap:round;stroke-linejoin:round;stroke-miterlimit:10;}
]]>
</style>
<g id="bg">
</g>
<g id="characters">
	<g>
		<path class="st84" d="M200.2,152.2c0,9.2-7.4,16.6-16.6,16.6H156c-9.2,0-16.6-7.4-16.6-16.6V24.5c0-9.2,7.4-16.6,16.6-16.6h27.6
			c9.2,0,16.6,7.4,16.6,16.6V152.2z"/>
		<path class="st44" d="M183.6,168.8c9.2,0,16.6-7.4,16.6-16.6V24.5c0-9.2-7.4-16.6-16.6-16.6H156c-0.1,0-0.2,0-0.3,0
			c7.6,27.8,16.9,82.6,4,160.8H183.6z"/>
		<path class="st21" d="M156,8h27.6c2.7,0,5.2,0.6,7.4,1.8C188.4,4,182.7,0,176,0h-12.3c-6.7,0-12.5,4-15.1,9.7
			C150.8,8.6,153.4,8,156,8z"/>
		<rect x="139.5" y="85.3" class="st72" width="60.8" height="16"/>
		<rect x="139.5" y="74.3" class="st41" width="60.8" height="11"/>
		<rect x="156.9" y="168.8" class="st72" width="25.8" height="11.7"/>
		<path class="st44" d="M182.7,180v0.4h-25.8V180c-21.3,3-37.6,13.4-39.9,26.2h52.8h52.8C220.3,193.4,204.1,183,182.7,180z"/>
		<polygon class="st72" points="162.9,206.2 169.8,220.5 177.2,206.2 		"/>
		<circle class="st84" cx="170.1" cy="220.5" r="3.5"/>
		<g>
			<path class="st48" d="M169.7,250.9c-7.4,0-14.4-2.9-18.2-7.4c-0.3-0.4-0.3-1,0.1-1.3c0.4-0.3,1-0.3,1.3,0.1
				c3.4,4.2,9.8,6.8,16.8,6.8c6.7,0,12.8-2.4,16.3-6.3c0.3-0.4,0.9-0.4,1.3-0.1c0.4,0.3,0.4,0.9,0.1,1.3
				C183.5,248.3,176.9,250.9,169.7,250.9z"/>
		</g>
		<g>
			<path class="st48" d="M169.7,242.5c-5.4,0-10.5-2.1-13.2-5.4c-0.3-0.4-0.3-1,0.1-1.3c0.4-0.3,1-0.3,1.3,0.1
				c2.4,2.9,6.9,4.8,11.8,4.8c4.7,0,9-1.7,11.5-4.4c0.3-0.4,0.9-0.4,1.3-0.1c0.4,0.3,0.4,0.9,0.1,1.3
				C179.7,240.6,174.9,242.5,169.7,242.5z"/>
		</g>
		<path class="st6" d="M129.3,114.4c0,9.2-7.4,16.6-16.6,16.6H18.4c-9.2,0-16.6-7.4-16.6-16.6v-52c0-9.2,7.4-16.6,16.6-16.6h94.3
			c9.2,0,16.6,7.4,16.6,16.6V114.4z"/>
		<path class="st41" d="M112.8,44H18.4C8.3,44,0,52.2,0,62.4v52c0,10.2,8.3,18.4,18.4,18.4h94.3c10.2,0,18.4-8.3,18.4-18.4v-52
			C131.2,52.2,122.9,44,112.8,44z M127.5,62.4v2.5h-10.4V48.3C123.1,50.2,127.5,55.8,127.5,62.4z M117.1,90.2h10.4v17.9h-10.4V90.2z
			 M117.1,86.5V68.6h10.4v17.9H117.1z M113.4,47.7v17.2h-12.9V47.6h12.2C113,47.6,113.2,47.7,113.4,47.7z M17.7,68.6h12.9v17.9H17.7
			V68.6z M17.7,90.2h12.9v17.9H17.7V90.2z M84,86.5V68.6h12.9v17.9H84z M96.9,90.2v17.9H84V90.2H96.9z M67.4,86.5V68.6h12.9v17.9
			H67.4z M80.3,90.2v17.9H67.4V90.2H80.3z M67.4,64.9V47.6h12.9v17.3H67.4z M50.9,86.5V68.6h12.9v17.9H50.9z M63.7,90.2v17.9H50.9
			V90.2H63.7z M50.9,64.9V47.6h12.9v17.3H50.9z M34.3,86.5V68.6h12.9v17.9H34.3z M47.2,90.2v17.9H34.3V90.2H47.2z M34.3,64.9V47.6
			h12.9v17.3H34.3z M47.2,111.8v17.3H34.3v-17.3H47.2z M50.9,111.8h12.9v17.3H50.9V111.8z M67.4,111.8h12.9v17.3H67.4V111.8z
			 M84,111.8h12.9v17.3H84V111.8z M84,64.9V47.6h12.9v17.3H84z M100.6,68.6h12.9v17.9h-12.9V68.6z M100.6,90.2h12.9v17.9h-12.9V90.2
			z M30.6,47.6v17.3H17.7V47.7c0.2,0,0.5,0,0.7,0H30.6z M14,48.3v16.6H3.7v-2.5C3.7,55.8,8,50.2,14,48.3z M14,90.2v17.9H3.7V90.2H14
			z M3.7,86.5V68.6H14v17.9H3.7z M3.7,114.4v-2.5H14v16.6C8,126.6,3.7,121,3.7,114.4z M17.7,129.1v-17.2h12.9v17.3H18.4
			C18.2,129.1,18,129.1,17.7,129.1z M100.6,129.1v-17.3h12.9v17.2c-0.2,0-0.5,0-0.7,0H100.6z M117.1,128.4v-16.6h10.4v2.5
			C127.5,121,123.1,126.6,117.1,128.4z"/>
		<g>
			<path class="st2" d="M131.1,61.7c0,0.3,0,0.6,0,0.8v8.5h8.7v-9.4H131.1z"/>
			<path class="st2" d="M131.2,105.6v9c0,0.1,0,0.3,0,0.4h8.8v-9.4H131.2z"/>
		</g>
		<path class="st6" d="M210.8,62.4c0-9.2,7.4-16.6,16.6-16.6h94.3c9.2,0,16.6,7.4,16.6,16.6v52c0,9.2-7.4,16.6-16.6,16.6h-94.3
			c-9.2,0-16.6-7.4-16.6-16.6V62.4z"/>
		<path class="st41" d="M227.4,132.8h94.3c10.2,0,18.4-8.3,18.4-18.4v-52c0-10.2-8.3-18.4-18.4-18.4h-94.3
			c-10.2,0-18.4,8.3-18.4,18.4v52C208.9,124.5,217.2,132.8,227.4,132.8z M212.6,114.4v-2.5H223v16.6
			C217,126.6,212.6,121,212.6,114.4z M223,86.5h-10.4V68.6H223V86.5z M223,90.2v17.9h-10.4V90.2H223z M226.7,129.1v-17.2h12.9v17.3
			h-12.2C227.1,129.1,226.9,129.1,226.7,129.1z M322.4,108.2h-12.9V90.2h12.9V108.2z M322.4,86.5h-12.9V68.6h12.9V86.5z M256.1,90.2
			v17.9h-12.9V90.2H256.1z M243.2,86.5V68.6h12.9v17.9H243.2z M272.7,90.2v17.9h-12.9V90.2H272.7z M259.8,86.5V68.6h12.9v17.9H259.8
			z M272.7,111.8v17.3h-12.9v-17.3H272.7z M289.3,90.2v17.9h-12.9V90.2H289.3z M276.4,86.5V68.6h12.9v17.9H276.4z M289.3,111.8v17.3
			h-12.9v-17.3H289.3z M305.8,90.2v17.9h-12.9V90.2H305.8z M292.9,86.5V68.6h12.9v17.9H292.9z M305.8,111.8v17.3h-12.9v-17.3H305.8z
			 M292.9,64.9V47.6h12.9v17.3H292.9z M289.3,64.9h-12.9V47.6h12.9V64.9z M272.7,64.9h-12.9V47.6h12.9V64.9z M256.1,64.9h-12.9V47.6
			h12.9V64.9z M256.1,111.8v17.3h-12.9v-17.3H256.1z M239.6,108.2h-12.9V90.2h12.9V108.2z M239.6,86.5h-12.9V68.6h12.9V86.5z
			 M309.5,129.1v-17.3h12.9v17.2c-0.2,0-0.5,0-0.7,0H309.5z M326.1,128.4v-16.6h10.4v2.5C336.4,121,332.1,126.6,326.1,128.4z
			 M326.1,86.5V68.6h10.4v17.9H326.1z M336.4,90.2v17.9h-10.4V90.2H336.4z M336.4,62.4v2.5h-10.4V48.3
			C332.1,50.2,336.4,55.8,336.4,62.4z M322.4,47.7v17.2h-12.9V47.6h12.2C321.9,47.6,322.2,47.7,322.4,47.7z M239.6,47.6v17.3h-12.9
			V47.7c0.2,0,0.5,0,0.7,0H239.6z M223,48.3v16.6h-10.4v-2.5C212.6,55.8,217,50.2,223,48.3z"/>
		<g>
			<path class="st2" d="M209,115c0-0.3,0-0.6,0-0.8v-8.5h-8.7v9.4H209z"/>
			<path class="st2" d="M208.9,71.1v-9c0-0.1,0-0.3,0-0.4h-8.8v9.4H208.9z"/>
		</g>
		<path class="st84" d="M214.5,206.2c-7.8-12.4-25.7-22.1-48.1-25.8h-2.6v0.1h-10.2c-19.7,3.6-34.4,13.5-36.6,25.6h52.8H214.5z"/>
	</g>
</g>
</svg>
