<?xml version="1.0" encoding="utf-8"?>
<!-- Generator: Adobe Illustrator 16.0.0, SVG Export Plug-In . SVG Version: 6.00 Build 0)  -->
<!DOCTYPE svg PUBLIC "-//W3C//DTD SVG 1.1//EN" "http://www.w3.org/Graphics/SVG/1.1/DTD/svg11.dtd">
<svg version="1.1" xmlns="http://www.w3.org/2000/svg" xmlns:xlink="http://www.w3.org/1999/xlink" x="0px" y="0px" width="301.9px"
	 height="250px" viewBox="0 0 301.9 250" style="enable-background:new 0 0 301.9 250;" xml:space="preserve">
<style type="text/css">
<![CDATA[
	.st0{fill:#7AEEE1;}
	.st1{fill:#AACDE1;}
	.st2{fill:#7C7E7D;}
	.st3{fill:#AE3082;}
	.st4{fill:#58C44D;stroke:#005115;stroke-width:5.2544;stroke-miterlimit:10;}
	.st5{fill:#11A2C9;}
	.st6{fill:#AFAFAF;}
	.st7{fill:#E1E9EC;}
	.st8{fill:#E327BC;}
	.st9{fill:#FFA1A1;stroke:#9E1919;stroke-width:4.637;stroke-linecap:round;stroke-linejoin:round;stroke-miterlimit:10;}
	.st10{fill:#FF97E7;stroke:#9B0486;stroke-width:6.5338;stroke-linecap:round;stroke-linejoin:round;stroke-miterlimit:10;}
	.st11{fill:#161F44;}
	.st12{fill:#E53D39;}
	.st13{fill:#4ABAE9;}
	.st14{fill:#7FEA73;stroke:#005115;stroke-width:5;stroke-miterlimit:10;}
	.st15{fill:#FFFFFF;stroke:#9E1919;stroke-width:5.9794;stroke-linecap:round;stroke-linejoin:round;stroke-miterlimit:10;}
	.st16{fill:#18ACC6;}
	.st17{opacity:0.2;fill:#1CBF33;}
	.st18{fill:#19A82D;}
	.st19{fill:#4DE5D6;}
	.st20{fill:#E8E8EA;}
	.st21{fill:#4E626D;}
	.st22{fill:#FFFFFF;stroke:#460166;stroke-width:5.6255;stroke-miterlimit:10;}
	.st23{opacity:0.3;fill:#9B0486;}
	.st24{opacity:0.3;fill:#9E1919;}
	.st25{fill:#1A8FC5;}
	.st26{fill:#868687;}
	.st27{fill:#58C44D;stroke:#005115;stroke-width:5;stroke-miterlimit:10;}
	.st28{opacity:0.2;fill:#BA4626;}
	.st29{fill:#1CBF33;}
	.st30{fill:none;stroke:#460166;stroke-width:4.8305;stroke-linecap:round;stroke-miterlimit:10;}
	.st31{fill:#1DA9E4;}
	.st32{fill:#1F949E;}
	.st33{fill:#1FC7EB;}
	.st34{fill:#50E6FF;}
	.st35{fill:#FFA1A1;stroke:#9E1919;stroke-width:5;stroke-linecap:round;stroke-linejoin:round;stroke-miterlimit:10;}
	.st36{fill:#FFA1A1;stroke:#9E1919;stroke-width:5.9794;stroke-linecap:round;stroke-linejoin:round;stroke-miterlimit:10;}
	.st37{opacity:0.3;fill:#005115;}
	.st38{opacity:0.3;fill:#005D82;}
	.st39{fill:#488442;stroke:#005115;stroke-width:5.2544;stroke-miterlimit:10;}
	.st40{fill:#FFFFFF;stroke:#9E1919;stroke-width:5;stroke-linecap:round;stroke-linejoin:round;stroke-miterlimit:10;}
	.st41{fill:#57717E;}
	.st42{fill:none;stroke:#9B0486;stroke-width:6;stroke-linecap:round;stroke-linejoin:round;stroke-miterlimit:10;}
	.st43{fill:#FFFFFF;stroke:#9B0486;stroke-width:6;stroke-linecap:round;stroke-linejoin:round;stroke-miterlimit:10;}
	.st44{fill:#BDBDBD;}
	.st45{fill:#BF4636;}
	.st46{fill:#22D93B;}
	.st47{opacity:0.2;fill:#929398;}
	.st48{fill:#F2F2F2;}
	.st49{fill:none;stroke:#005D82;stroke-width:5.2544;stroke-linecap:round;stroke-linejoin:round;stroke-miterlimit:10;}
	.st50{fill:#D88282;stroke:#9E1919;stroke-width:5.9794;stroke-linecap:round;stroke-linejoin:round;stroke-miterlimit:10;}
	.st51{fill:#26B1E4;}
	.st52{fill:#F7F7F7;}
	.st53{clip-path:url(#SVGID_2_);}
	.st54{clip-path:url(#SVGID_4_);}
	.st55{clip-path:url(#SVGID_6_);}
	.st56{clip-path:url(#SVGID_8_);}
	.st57{fill:#7FEA73;stroke:#005115;stroke-width:5.2544;stroke-miterlimit:10;}
	.st58{fill:#50E6FF;stroke:#005D82;stroke-width:5;stroke-linecap:round;stroke-linejoin:round;stroke-miterlimit:10;}
	.st59{fill:#999B9F;}
	.st60{fill:#FCDD5B;}
	.st61{fill:#C91190;}
	.st62{opacity:0.3;fill:#460166;}
	.st63{opacity:0.3;}
	.st64{fill:#FFFFFF;stroke:#9E1919;stroke-width:1.9866;stroke-linecap:round;stroke-linejoin:round;stroke-miterlimit:10;}
	.st65{fill:#FEFEFF;}
	.st66{fill:#FFFFFF;}
	.st67{fill:#FFFFFF;stroke:#460166;stroke-width:4.8305;stroke-miterlimit:10;}
	.st68{fill:#FFFFFF;stroke:#005D82;stroke-width:5.2544;stroke-linecap:round;stroke-linejoin:round;stroke-miterlimit:10;}
	.st69{fill:#D18DE2;stroke:#460166;stroke-width:5.6255;stroke-miterlimit:10;}
	.st70{fill:none;stroke:#005D82;stroke-width:5;stroke-linecap:round;stroke-linejoin:round;stroke-miterlimit:10;}
	.st71{fill:#FFFFFF;stroke:#005D82;stroke-width:5;stroke-linecap:round;stroke-linejoin:round;stroke-miterlimit:10;}
	.st72{fill:#364852;}
	.st73{fill:#FFFFFF;stroke:#9E1919;stroke-width:2.3758;stroke-linecap:round;stroke-linejoin:round;stroke-miterlimit:10;}
	.st74{fill:none;stroke:#460166;stroke-width:5.6255;stroke-linecap:round;stroke-miterlimit:10;}
	.st75{fill:#6C98B1;}
	.st76{fill:#6D9CB0;}
	.st77{fill:#001405;}
	.st78{fill:#005D82;}
	.st79{fill:#006265;}
	.st80{fill:#FFFFFF;stroke:#005115;stroke-width:5;stroke-miterlimit:10;}
	.st81{fill:#2DA1AD;stroke:#005D82;stroke-width:5;stroke-linecap:round;stroke-linejoin:round;stroke-miterlimit:10;}
	.st82{fill:#FFFFFF;stroke:#005115;stroke-width:5.2544;stroke-miterlimit:10;}
	.st83{fill:none;stroke:#9B0486;stroke-width:6.5338;stroke-linecap:round;stroke-linejoin:round;stroke-miterlimit:10;}
	.st84{fill:#D2D2D2;}
	.st85{fill:#FFA1A1;stroke:#9E1919;stroke-width:3.8774;stroke-linecap:round;stroke-linejoin:round;stroke-miterlimit:10;}
	.st86{fill:#D18DE2;stroke:#460166;stroke-width:5;stroke-miterlimit:10;}
	.st87{clip-path:url(#SVGID_10_);}
	.st88{fill:#50E6FF;stroke:#005D82;stroke-width:5.2544;stroke-linecap:round;stroke-linejoin:round;stroke-miterlimit:10;}
	.st89{fill:#FF97E7;stroke:#9B0486;stroke-width:6;stroke-linecap:round;stroke-linejoin:round;stroke-miterlimit:10;}
	.st90{fill:#488442;stroke:#005115;stroke-width:5;stroke-miterlimit:10;}
	.st91{fill:none;stroke:#000000;stroke-width:6;stroke-miterlimit:10;}
	.st92{fill:#FFFFFF;stroke:#231F20;stroke-miterlimit:10;}
	.st93{fill:#2DA1AD;stroke:#005D82;stroke-width:5.2544;stroke-linecap:round;stroke-linejoin:round;stroke-miterlimit:10;}
	.st94{fill:#78756E;}
	.st95{fill:#FFFFFF;stroke:#9B0486;stroke-width:6.5338;stroke-linecap:round;stroke-linejoin:round;stroke-miterlimit:10;}
]]>
</style>
<g id="bg">
</g>
<g id="characters">
	<g>
		<g>
			<path class="st79" d="M301.9,152c0-23.4-67.6-42.5-150.9-42.5C67.6,109.5,0,128.5,0,152c0,4.2,2.2,8.2,6.2,12c0,0.1,0,0.1,0,0.2
				c0,22.5,64.8,40.7,144.8,40.7c80,0,144.8-18.2,144.8-40.7c0-0.1,0-0.1,0-0.2C299.7,160.2,301.9,156.2,301.9,152z"/>
			<path class="st32" d="M150.9,109.5C67.6,109.5,0,128.5,0,152c0,4,2,7.8,5.7,11.5c32,11,85.2,18.2,145.5,18.2
				c59.9,0,112.9-7.1,144.9-18.1c3.8-3.7,5.8-7.6,5.8-11.7C301.9,128.5,234.3,109.5,150.9,109.5z"/>
		</g>
		<g>
			<path class="st19" d="M189.2,158.1c-8.6,0-15.6,6.1-15.6,13.6h31.3C204.9,164.2,197.9,158.1,189.2,158.1z"/>
			<path class="st19" d="M112.6,158.1c-8.6,0-15.6,6.1-15.6,13.6h31.3C128.3,164.2,121.3,158.1,112.6,158.1z"/>
		</g>
		<g>
			<path class="st19" d="M263.9,138c-8.6,0-15.6,6.1-15.6,13.5h31.1C279.5,144.1,272.5,138,263.9,138z"/>
			<path class="st19" d="M37.9,138c-8.6,0-15.6,6.1-15.6,13.5h31.1C53.5,144.1,46.5,138,37.9,138z"/>
		</g>
		<g>
			<path class="st19" d="M215.7,151.8c3-6.9,4.7-14.5,4.7-22.5l6.7-73.1C227.2,25.1,202,0,171,0h-40.2c-31,0-56.1,25.1-56.1,56.1
				l7.4,73.1c0,8,1.7,15.6,4.7,22.5c0,0,0.3,4.2,62.7,4.2C209.2,156,215.7,151.8,215.7,151.8z"/>
			<path class="st0" d="M171,0h-40.2c12.6,12.8,51,59.3,55.6,155.2c25.7-1.2,29.3-3.4,29.3-3.4c3-6.9,4.7-14.5,4.7-22.5l6.7-73.1
				C227.2,25.1,202,0,171,0z"/>
		</g>
		<g>
			<g>
				<path class="st60" d="M150.9,237.9c-11.3,0-32.6-1.4-32.6-6.8c0-5.4,21.3-6.8,32.6-6.8s32.6,1.4,32.6,6.8
					C183.5,236.5,162.2,237.9,150.9,237.9z M150.9,226.4c-19.7,0-30.5,3.1-30.5,4.7c0,1.6,10.8,4.7,30.5,4.7s30.5-3.1,30.5-4.7
					C181.4,229.5,170.7,226.4,150.9,226.4z"/>
			</g>
			<g>
				<path class="st60" d="M150.9,250c-3,0-17.8-0.2-17.8-4.1s14.8-4.1,17.8-4.1s17.8,0.2,17.8,4.1S153.9,250,150.9,250z
					 M135.4,245.9c1.2,0.8,6.5,2,15.5,2c9,0,14.2-1.2,15.5-2c-1.2-0.8-6.5-2-15.5-2C141.9,243.9,136.7,245.1,135.4,245.9z"/>
			</g>
		</g>
		<path class="st94" d="M150.9,204.9c-33.5,0-64.3-3.2-88.8-8.6c5.4,12.2,43.1,21.7,88.8,21.7s83.4-9.5,88.8-21.7
			C215.2,201.7,184.4,204.9,150.9,204.9z"/>
	</g>
</g>
</svg>
